<?xml version="1.0" encoding="UTF-8"?>
<svg width="194px" height="38px" viewBox="0 0 194 38" version="1.1" xmlns="http://www.w3.org/2000/svg" xmlns:xlink="http://www.w3.org/1999/xlink">
    <!-- Generator: Sketch 50.2 (55047) - http://www.bohemiancoding.com/sketch -->
    <title>otoadio negro sobre blanco</title>
    <desc>Created with Sketch.</desc>
    <defs></defs>
    <g id="UI-Otoaudio-2" stroke="none" stroke-width="1" fill="none" fill-rule="evenodd">
        <g id="Otoaudio-Home-" transform="translate(-111.000000, -54.000000)" fill="#A7AAA9" fill-rule="nonzero" stroke="#A7AAA9">
            <g id="otoadio-negro-sobre-blanco" transform="translate(112.000000, 55.000000)">
                <g id="Group" transform="translate(96.000000, 18.000000) scale(-1, 1) rotate(-180.000000) translate(-96.000000, -18.000000) ">
                    <path d="M128.091777,29.5594125 L128.091777,23.118825 L127.848042,23.525227 C126.760261,25.3407835 125.036062,26.3347013 122.35949,26.6969292 C121.641826,26.7941122 119.750623,26.833869 118.906578,26.7676078 C114.957168,26.4628063 112.623631,25.0050602 111.508769,22.1381594 C111.31017,21.6257396 111.102544,20.8085182 110.976162,20.0487233 C110.881377,19.4788771 110.876863,19.2933457 110.863322,15.7638331 C110.845268,12.6407224 110.854295,11.9736931 110.912972,11.4038469 C111.152193,9.1465491 111.842776,7.5297761 113.079505,6.32823989 C114.266585,5.17529521 115.796699,4.51268333 117.954206,4.21229927 C119.741596,3.96492417 122.242136,4.05768984 123.817387,4.42875249 C124.832949,4.66729277 125.839485,5.08252955 126.579717,5.56844493 C127.044619,5.86882898 127.748742,6.53585828 128.118858,7.01735625 C128.714655,7.79040344 129.22018,8.97427001 129.468428,10.1713888 C129.748272,11.5142822 129.730218,10.7544873 129.748272,23.9492986 L129.766327,35.9955826 L128.926795,35.9955826 L128.091777,35.9955826 L128.091777,29.5594125 Z M121.840425,25.2126785 C125.302365,24.9167119 127.184541,23.4678006 127.816446,20.6185695 C128.042127,19.5804775 128.055668,19.3419373 128.078236,15.9405296 C128.105318,12.1636419 128.064695,11.3596728 127.798392,10.1890585 C127.247731,7.75948155 125.735672,6.36357919 123.10875,5.84674192 C122.169919,5.665628 121.691476,5.62587129 120.305797,5.62587129 C118.911091,5.62587129 118.373972,5.67004542 117.462222,5.84674192 C114.925572,6.34590954 113.440594,7.66229848 112.840284,9.93726594 C112.51079,11.1873937 112.461141,12.0487891 112.488222,15.9935386 C112.51079,19.2712587 112.524331,19.531886 112.745498,20.569978 C113.395458,23.6091578 115.440124,25.0624865 119.357939,25.2612701 C120.102685,25.2966094 121.077625,25.2789397 121.840425,25.2126785 Z" id="Shape"></path>
                    <path d="M136.487094,34.7454548 C136.040246,34.6217673 135.737834,34.3302181 135.60694,33.9061465 C135.417368,33.2877087 135.652076,32.7134451 136.211764,32.4307307 C136.460012,32.3026257 136.536744,32.284956 136.839156,32.284956 C137.376275,32.2893735 137.755419,32.5014093 137.990126,32.9254809 C138.134562,33.1816908 138.134562,33.8619723 137.990126,34.1225997 C137.705769,34.6482718 137.073863,34.9088991 136.487094,34.7454548 Z" id="Shape"></path>
                    <path d="M26.2195684,32.20986 C26.2195684,31.9801546 25.7772345,26.4893108 25.75918,26.4716411 C25.7456392,26.4583889 22.2656448,26.1447526 22.1347501,26.1447526 C22.1212093,26.1447526 22.112182,25.8664556 22.112182,25.5263148 L22.112182,24.9078771 L23.9401946,24.9078771 L25.7682072,24.9078771 L25.7682072,18.0211309 C25.7682072,13.7583278 25.7862617,10.9223489 25.8133434,10.5689559 C26.0390239,7.79482085 27.013964,5.95717723 28.8148949,4.92792011 C29.8485119,4.33598683 31.0446189,4.08419431 32.7868729,4.08419431 C34.6148855,4.08861172 36.2488128,4.33598683 37.4945696,4.79981514 L37.9098218,4.95442458 L37.9098218,5.72305437 C37.9098218,6.44309261 37.9053082,6.49610156 37.8330904,6.4740145 C37.7879543,6.45634485 37.5171376,6.3679966 37.2327801,6.27081352 C35.6530161,5.74072402 33.0712304,5.46684444 31.532089,5.67004542 C29.4603413,5.93950758 28.2552071,6.9996866 27.7271146,9.01844413 C27.4517843,10.0742057 27.4653251,9.6766386 27.4517843,17.6323986 L27.4337298,24.9078771 L32.2452396,24.9078771 L37.0522356,24.9078771 L37.0522356,25.6809243 L37.0522356,26.4539715 L32.2452396,26.4539715 L27.4382435,26.4539715 L27.4382435,29.3915508 L27.4382435,32.3291302 L26.8289059,32.3291302 L26.2195684,32.3291302 L26.2195684,32.20986 Z" id="Shape"></path>
                    <path d="M184.85044,30.4296428 C184.489351,30.3545468 184.250129,30.239694 183.072077,29.5991692 C182.020405,29.0249056 181.839861,28.9144703 181.555503,28.6405907 C181.027411,28.1281708 180.792703,27.5804117 180.792703,26.8515386 C180.792703,26.3170317 180.905543,25.9415516 181.221496,25.4379666 C181.803752,24.5147274 182.1513,23.9051244 182.503362,23.2071732 C183.947717,20.3226029 184.629273,17.2790056 184.539,14.0852163 C184.471296,11.651222 184.05153,9.60154259 183.180403,7.43701044 C182.729042,6.31057024 181.541962,4.09744655 181.212469,3.76614061 C180.986788,3.54085257 180.702431,3.42599984 180.359396,3.42158243 C180.070525,3.42158243 180.03893,3.43483467 178.85185,4.01793312 C177.547416,4.65404053 177.357845,4.78214549 177.186328,5.15762556 C177.050919,5.4535922 177.059946,5.83790709 177.208896,6.11620408 C178.242513,8.06428302 178.432084,8.47510239 178.797687,9.57503811 C179.163289,10.6573042 179.425079,11.8985971 179.55146,13.0912985 C179.623678,13.8069193 179.61465,15.5341276 179.524378,16.3071748 C179.249048,18.7941781 178.445625,21.0868152 177.073487,23.2734344 C176.36485,24.4042921 175.678781,24.8371985 174.604542,24.8327811 C173.972636,24.8327811 173.746956,24.7444328 172.307114,23.9581334 C171.255442,23.3838698 171.05233,23.2557648 170.786027,22.9995549 C170.104471,22.336943 169.86525,21.3651122 170.154121,20.441873 C170.212798,20.2651765 170.375288,19.9559576 170.587428,19.6379039 C171.512718,18.2420015 172.049838,16.6870723 172.135596,15.1763172 C172.25295,13.064794 171.769994,11.3685076 170.51521,9.4646028 C170.285016,9.12004462 170.248907,9.03611378 170.248907,8.85499987 C170.248907,8.48835463 170.456533,8.23656211 170.808595,8.18797057 C171.183224,8.13054421 171.386337,8.29398847 171.846725,9.00519189 C172.144624,9.46902021 172.609526,10.3745898 172.817152,10.9002619 C173.304622,12.1283026 173.503221,13.192899 173.503221,14.5932188 C173.503221,15.8300943 173.354271,16.7489161 172.975128,17.8841911 C172.74042,18.5865597 172.185246,19.7085825 171.76548,20.3314377 C171.417932,20.8526924 171.336687,21.1133197 171.417932,21.4490431 C171.49015,21.7317575 171.661667,22.0100544 171.842212,22.1381594 C172.022756,22.2706818 173.886878,23.2955215 174.171235,23.4192091 C174.591001,23.600323 175.182284,23.4810528 175.48921,23.1541643 C175.818703,22.8007713 176.622126,21.3916167 177.037378,20.4462904 C177.619634,19.103397 178.003291,17.6633205 178.170295,16.1834873 C178.260567,15.4148575 178.269594,13.9482765 178.197376,13.2238209 C177.971696,11.0416191 177.285627,8.97427001 176.152711,7.03944331 C175.832244,6.49610156 175.741972,6.19571751 175.737458,5.64795835 C175.732945,5.26806087 175.755513,5.12228626 175.845785,4.85724151 C175.985707,4.42875249 176.328741,3.92516746 176.653721,3.67779236 C176.942593,3.45250432 179.253562,2.29514223 179.637218,2.18470691 C180.25107,2.003593 180.896516,2.06543677 181.523908,2.356986 C182.228031,2.68387453 182.715501,3.35532124 183.744605,5.40500066 C185.211529,8.3381626 185.906625,11.2801594 185.911138,14.5578795 C185.911138,18.4805418 184.805303,22.3104385 182.720015,25.6102457 C182.182895,26.4539715 182.146786,26.5290675 182.146786,26.8294515 C182.1513,27.1828445 182.295736,27.5097331 182.553011,27.7261863 C182.656824,27.8145345 183.252621,28.1635101 183.870986,28.4992335 C185.085147,29.157428 185.261178,29.2148543 185.667403,29.1088364 C186.037519,29.0116533 186.245146,28.826122 186.601721,28.2739454 C188.790822,24.8902074 190.077202,21.2944336 190.542104,17.2657534 C190.636889,16.4087753 190.677512,13.8113368 190.609808,12.8439234 C190.402182,9.95493559 189.743194,7.282401 188.614791,4.72913654 C188.276271,3.973759 187.463821,2.40999495 187.021487,1.66786964 C186.682966,1.10685825 186.633316,0.992005524 186.633316,0.815309022 C186.633316,0.700456296 186.664911,0.550264269 186.70102,0.479585668 C186.904133,0.0952707763 187.468334,0.020174763 187.770746,0.338228467 C188.037049,0.612108045 189.197047,2.71479642 189.72514,3.88099333 C191.020546,6.73022443 191.742724,9.58387294 191.963891,12.7334881 C192.031595,13.7274059 191.990973,16.4838713 191.896187,17.3761887 C191.46288,21.2900162 190.293855,24.7841895 188.280784,28.1546753 C187.328412,29.7449438 187.057596,30.0364931 186.231605,30.3324597 C185.902111,30.4517298 185.179933,30.5003214 184.85044,30.4296428 Z" id="Shape"></path>
                    <path d="M8.16512295,26.7764426 C7.24885984,26.6925118 6.91936621,26.652755 6.34613757,26.5379023 C4.57228831,26.1933441 3.27688185,25.5616541 2.22972401,24.532397 C1.06069867,23.3882872 0.43330669,21.9879674 0.121867507,19.8278526 C0.0361088909,19.2403368 0.0270816682,18.9178657 0.00902722272,15.9405296 C-0.0180544454,11.8809275 0.0270816682,11.094628 0.379143354,9.73406497 C1.29992007,6.13829115 3.79143354,4.38899578 8.39080352,4.09744655 C10.638582,3.95608935 12.9811463,4.26972564 14.5383422,4.9235027 C15.8021534,5.4535922 16.8944473,6.34590954 17.571489,7.40608855 C18.0047957,8.08195267 18.4065071,9.09354015 18.6096196,10.0256142 C18.8668955,11.1829763 18.8759227,11.3154987 18.8939771,15.03496 C18.9165452,18.6395687 18.8939771,19.2403368 18.7224599,20.2872636 C18.1672857,23.6400797 16.3257323,25.645585 13.0849593,26.427467 C11.915934,26.7101814 10.904885,26.8117819 9.36122996,26.7985297 C8.79251493,26.7941122 8.25088156,26.7852774 8.16512295,26.7764426 Z M10.2774931,25.2612701 C10.7559359,25.239183 11.3652734,25.1861741 11.6315765,25.1508348 C14.7595091,24.7046761 16.4069773,23.2866867 17.002774,20.5346387 C17.2058865,19.5937298 17.2149137,19.4302855 17.2149137,15.388353 C17.2149137,11.6070479 17.2149137,11.5363693 17.1111007,10.9179315 C16.5514129,7.48118456 14.7053458,5.96159465 10.7107998,5.64354094 C9.88932249,5.57727975 8.18317739,5.61703647 7.44294513,5.71421954 C5.02364944,6.03669066 3.53415769,6.87158163 2.62692181,8.4088412 C2.23875123,9.06703567 1.97244816,9.89750923 1.79190371,11.0062798 C1.68809065,11.6203001 1.68809065,11.6998136 1.68809065,15.4104401 C1.68809065,19.4832945 1.69711787,19.6467387 1.9453665,20.6892481 C2.65400348,23.675419 4.6490197,25.0624865 8.52621186,25.2568527 C8.88730077,25.2789397 9.23033523,25.2966094 9.29352579,25.2966094 C9.35671635,25.3010268 9.79905026,25.2833571 10.2774931,25.2612701 Z" id="Shape"></path>
                    <path d="M50.1417086,26.78086 C50.05595,26.7720252 49.7625652,26.7411033 49.4872349,26.7145988 C47.9932296,26.5732416 46.3908976,26.0873262 45.3798486,25.4688885 C43.5834313,24.3733702 42.5227326,22.6064051 42.134562,20.0619755 C41.9901265,19.1254841 41.9630448,18.2640886 41.9856129,14.9466118 C42.0081809,11.4436036 42.0172081,11.2757419 42.2609432,10.109545 C42.983121,6.69046772 45.1677089,4.77772808 48.9681696,4.23438634 C50.3132258,4.04002019 51.9697212,4.01793312 53.3869952,4.16812515 C57.4672998,4.6098664 59.8008369,6.50493639 60.5862053,10.0211968 C60.8525083,11.222733 60.8615356,11.3905947 60.8615356,15.388353 C60.8615356,19.3551895 60.8525083,19.5274686 60.6132869,20.7113352 C59.9497861,23.9581334 57.9728243,25.8620382 54.5650477,26.5423197 C53.6668391,26.7190162 53.0484743,26.7720252 51.6537684,26.7852774 C50.9090225,26.7941122 50.2274672,26.7896948 50.1417086,26.78086 Z M52.2540787,25.2612701 C53.9421694,25.1773392 55.1111947,24.9299641 56.1222436,24.4307965 C57.9457426,23.5384792 58.8755466,21.9968022 59.1508769,19.3993636 C59.2050402,18.8736915 59.2140674,18.1448185 59.2005266,15.1321431 C59.1824721,11.2669071 59.1824721,11.2669071 58.9477644,10.2155629 C58.2165593,6.92459058 55.7340731,5.49334892 50.9767267,5.61703647 C49.8573511,5.64795835 49.1983638,5.71863696 48.3859138,5.89533346 C45.8492642,6.45192744 44.422963,7.85666463 43.8948705,10.3171634 C43.6737035,11.3640902 43.6646763,11.5186996 43.6646763,15.4546142 C43.6646763,19.5716427 43.6737035,19.7439218 43.9806291,20.9101187 C44.7208613,23.7372628 46.7249048,25.0713213 50.5027975,25.2612701 C50.8638864,25.2789397 51.2069209,25.2966094 51.2701114,25.2966094 C51.333302,25.3010268 51.7756359,25.2833571 52.2540787,25.2612701 Z" id="Shape"></path>
                    <path d="M72.2358362,26.7764426 C70.7102356,26.6969292 69.1033899,26.4539715 67.7357657,26.0961611 L67.5642484,26.0519869 L67.5642484,25.2126785 C67.5642484,24.4263791 67.568762,24.3689528 67.6454934,24.3998746 C68.0878274,24.5677363 69.5953735,24.9167119 70.4123372,25.0403995 C72.1771592,25.3054442 74.7950538,25.3540357 76.2755184,25.1464174 C79.2003385,24.7400154 80.6672622,23.4147916 80.9200244,20.9587103 C80.9471061,20.6936655 80.9696742,19.6644084 80.9696742,18.6704906 L80.9696742,16.8681862 L77.6205745,16.8681862 C73.3597254,16.8681862 72.3441629,16.8151773 70.8140486,16.5147932 C67.7041704,15.9051903 66.0702431,14.4474442 65.64145,11.8985971 C65.5286097,11.2271504 65.5286097,9.82683063 65.64145,9.20397546 C65.9528892,7.50327163 66.8104753,6.21338716 68.2367765,5.31665241 C69.148526,4.74238878 70.4890686,4.30506494 71.8296112,4.1504555 C73.3506982,3.973759 75.8783206,4.10628137 77.4039212,4.43758732 C80.5273403,5.12228626 82.1386995,6.76998114 82.5268701,9.68105601 C82.585547,10.1272147 82.5945743,11.0018624 82.5945743,15.6003888 C82.5945743,19.2403368 82.5765198,21.1265719 82.5449245,21.3960341 C82.3779209,22.7521798 81.8362876,23.8962896 80.9516197,24.7576851 C79.7600263,25.9194646 78.0358268,26.555572 75.5082044,26.7631904 C75.0387888,26.8029471 72.8993371,26.8117819 72.2358362,26.7764426 Z M80.9696742,13.1266378 C80.9696742,10.666139 80.9335653,10.0432838 80.7665617,9.30557595 C80.2655508,7.11453932 78.8031407,6.06761255 75.733885,5.71421954 C74.8898397,5.61703647 72.9625276,5.57727975 72.2809723,5.64354094 C70.0151394,5.85999416 68.4669707,6.71697219 67.7267384,8.1614661 C67.3656495,8.85941728 67.2031595,9.58829035 67.2031595,10.4850251 C67.2031595,11.4436036 67.3475951,12.1415548 67.6996568,12.8350886 C68.4624571,14.3546785 70.1911702,15.1409779 73.2513987,15.3618486 C73.5131882,15.3839356 75.3547416,15.4016053 77.3497579,15.4060227 L80.9696742,15.4104401 L80.9696742,13.1266378 Z" id="Shape"></path>
                    <path d="M151.788236,26.7587729 C150.334854,26.630668 149.03042,26.3081969 148.019371,25.8355337 C145.68132,24.735598 144.417509,22.7831016 144.015798,19.6511561 C143.970662,19.2977631 143.957121,18.268506 143.957121,15.388353 C143.957121,11.9781105 143.966148,11.5319519 144.038366,11.0372017 C144.349805,8.90359141 144.995251,7.47676715 146.164277,6.32823989 C147.590578,4.93675493 149.508863,4.2564734 152.451737,4.09302914 C154.06761,4.0090983 155.782782,4.1504555 157.09173,4.47734403 C160.364098,5.29898276 162.160515,7.34866219 162.684094,10.8605052 C162.824016,11.801414 162.855611,12.8483408 162.833043,15.9847037 C162.819503,18.5379682 162.801448,19.1564059 162.738258,19.6511561 C162.449386,21.8686972 161.785886,23.3882872 160.589779,24.5544841 C159.402699,25.720681 157.813908,26.3921277 155.534534,26.7013466 C154.911655,26.7852774 152.501387,26.8206167 151.788236,26.7587729 Z M154.162396,25.2612701 C156.699046,25.1375825 158.29235,24.6030756 159.41624,23.4987225 C160.337016,22.5931529 160.860595,21.3562774 161.095303,19.5186338 C161.181062,18.8560219 161.181062,12.0532066 161.095303,11.3905947 C160.847054,9.44251574 160.314448,8.22772728 159.303399,7.29123582 C158.251728,6.32382247 156.793831,5.80698521 154.631812,5.64354094 C153.774225,5.58169717 152.16738,5.61261905 151.386525,5.71421954 C148.096102,6.12945632 146.398984,7.57395023 145.812215,10.462938 C145.613616,11.4303514 145.595562,11.8058315 145.572994,14.8361765 C145.545912,18.6572383 145.604589,19.6909129 145.925055,20.923371 C146.326767,22.4650479 147.125676,23.5561488 148.38046,24.2806045 C149.328318,24.8239462 150.795242,25.1817567 152.438196,25.2568527 C152.812826,25.2789397 153.160374,25.2966094 153.210024,25.2966094 C153.259674,25.3010268 153.688467,25.2833571 154.162396,25.2612701 Z" id="Shape"></path>
                    <path d="M87.7400912,18.7985955 C87.7400912,13.7229885 87.7581457,10.9797753 87.7897409,10.6573042 C88.0605576,7.93176064 89.2882599,6.04110807 91.4502797,5.0295206 C92.0189948,4.76447584 92.8314448,4.49943109 93.467864,4.37132613 C95.6208566,3.93400228 98.3470779,3.96934158 100.351121,4.45967438 C103.190183,5.15320815 104.909869,6.85832939 105.478584,9.54411623 C105.704264,10.6131301 105.704264,10.5601211 105.704264,18.7765085 L105.704264,26.4539715 L104.891814,26.4539715 L104.083878,26.4539715 L104.065823,18.7146647 C104.047769,10.2597371 104.06131,10.6131301 103.790493,9.56620329 C103.257887,7.51210645 101.876722,6.31498765 99.4980488,5.84674192 C98.5682449,5.665628 98.0852884,5.62587129 96.7221778,5.62587129 C95.3590672,5.62587129 94.8806244,5.665628 93.9417932,5.84674192 C91.5676336,6.31498765 90.1909822,7.50768904 89.6538624,9.56620329 C89.3830457,10.6175475 89.392073,10.2023107 89.3785321,18.6925776 L89.3604777,26.4539715 L88.5525413,26.4539715 L87.7400912,26.4539715 L87.7400912,18.7985955 Z" id="Shape"></path>
                    <polygon id="Shape" points="135.990597 15.4325272 135.990597 4.41108284 136.825615 4.41108284 137.660633 4.41108284 137.660633 15.4325272 137.660633 26.4539715 136.825615 26.4539715 135.990597 26.4539715"></polygon>
                </g>
            </g>
        </g>
    </g>
</svg>